#N canvas 0 25 1440 847 10;
#N canvas 73 2 356 792 engine 0;
#X obj 155 769 outlet~;
#X obj 215 428 delwrite~ e1b 50;
#X obj 215 662 delwrite~ e2b 50;
#X obj 99 581 +~;
#X obj 53 702 s~ ewgfb1;
#X obj 215 704 s~ ewgfb2;
#X obj 52 364 r~ ewgfb2;
#X obj 52 418 delwrite~ e1a 10;
#X obj 53 659 delwrite~ e2a 10;
#X obj 215 386 r~ ewgfb1;
#X obj 59 184 *~;
#X obj 4 202 sig~ 1;
#X obj 22 231 /~;
#X obj 59 205 +~ 1;
#X obj 23 312 -~ 0.5;
#X obj 215 407 bp~ 100 2;
#X obj 153 99 noise~;
#X obj 153 165 clip~ -0.5 0.5;
#X obj 22 288 +~;
#X obj 153 143 *~ 12;
#X obj 74 530 cos~;
#X obj 74 508 -~ 0.25;
#X obj 138 529 cos~;
#X obj 138 507 -~ 0.25;
#X obj 74 486 *~ 0.125;
#X obj 138 485 *~ 0.125;
#X obj 99 622 hip~ 12;
#X obj 99 601 lop~ 200;
#X obj 23 335 hip~ 30;
#X obj 153 121 bp~ 500 5;
#X obj 38 266 *~;
#X obj 153 187 *~ 0.15;
#X obj 74 556 *~ 0.17;
#X obj 138 554 *~ 0.17;
#X obj 52 385 *~ 0.6;
#X obj 53 439 vd~ e1a 8;
#X obj 215 450 vd~ e1b 9;
#X obj 53 681 vd~ e2a 3;
#X obj 215 683 vd~ e2b 6;
#X obj 75 54 *~;
#X obj 59 77 *~;
#X obj 59 125 +~;
#X obj 59 98 *~ -14;
#X obj 106 99 *~ 14;
#X obj 59 163 *~ 7;
#X obj 155 725 hip~ 200;
#X obj 155 747 hip~ 200;
#X obj 59 2 inlet~;
#X obj 59 23 phasor~;
#X connect 3 0 27 0;
#X connect 6 0 34 0;
#X connect 9 0 15 0;
#X connect 10 0 13 0;
#X connect 11 0 12 0;
#X connect 12 0 30 0;
#X connect 12 0 18 0;
#X connect 13 0 12 1;
#X connect 14 0 28 0;
#X connect 15 0 1 0;
#X connect 16 0 29 0;
#X connect 17 0 31 0;
#X connect 18 0 14 0;
#X connect 19 0 17 0;
#X connect 20 0 32 0;
#X connect 21 0 20 0;
#X connect 22 0 33 0;
#X connect 23 0 22 0;
#X connect 24 0 21 0;
#X connect 25 0 23 0;
#X connect 26 0 8 0;
#X connect 26 0 2 0;
#X connect 27 0 26 0;
#X connect 28 0 7 0;
#X connect 29 0 19 0;
#X connect 30 0 18 1;
#X connect 31 0 30 1;
#X connect 32 0 3 0;
#X connect 33 0 3 1;
#X connect 34 0 7 0;
#X connect 35 0 8 0;
#X connect 35 0 24 0;
#X connect 35 0 32 0;
#X connect 36 0 2 0;
#X connect 36 0 25 0;
#X connect 36 0 33 0;
#X connect 37 0 4 0;
#X connect 38 0 5 0;
#X connect 38 0 45 0;
#X connect 39 0 40 1;
#X connect 39 0 43 0;
#X connect 40 0 42 0;
#X connect 41 0 44 0;
#X connect 42 0 41 0;
#X connect 43 0 41 1;
#X connect 44 0 10 0;
#X connect 44 0 10 1;
#X connect 45 0 46 0;
#X connect 46 0 0 0;
#X connect 47 0 48 0;
#X connect 48 0 39 0;
#X connect 48 0 39 1;
#X connect 48 0 40 0;
#X restore -56 422 pd engine;
#N canvas 0 0 231 361 tail 0;
#X obj 109 2 inlet~;
#X obj 26 341 outlet~;
#X obj 80 152 noise~;
#X obj 2 115 sig~ 1;
#X obj 2 143 /~;
#X obj 59 87 *~;
#X obj 59 112 +~ 1;
#X obj 26 317 +~;
#X obj 2 287 *~ 0.1;
#X obj 80 229 vcf~ 1 12;
#X obj 64 256 *~;
#X obj 109 205 +~ 100;
#X obj 109 183 *~ 500;
#X obj 158 183 loadbang;
#X obj 64 286 *~ 0.3;
#X obj 109 26 osc~;
#X obj 59 62 *~ 1.5;
#X msg 158 206 6;
#X connect 0 0 15 0;
#X connect 2 0 9 0;
#X connect 3 0 4 0;
#X connect 4 0 8 0;
#X connect 4 0 10 0;
#X connect 5 0 6 0;
#X connect 6 0 4 1;
#X connect 7 0 1 0;
#X connect 8 0 7 0;
#X connect 9 0 10 1;
#X connect 10 0 14 0;
#X connect 11 0 9 1;
#X connect 12 0 11 0;
#X connect 13 0 17 0;
#X connect 14 0 7 1;
#X connect 15 0 12 0;
#X connect 15 0 16 0;
#X connect 16 0 5 0;
#X connect 16 0 5 1;
#X connect 17 0 9 2;
#X restore 83 427 pd tail rotor;
#N canvas 57 35 207 209 gears 0;
#X obj 60 189 outlet~;
#X obj 1 99 *~ 1.45;
#X obj 61 148 *~ 0.33;
#X obj 61 59 *~;
#X obj 78 28 inlet~ gear-ratio;
#X obj 61 4 inlet~ engine speed;
#X obj 1 123 osc~;
#X obj 61 123 osc~;
#X obj 121 122 osc~;
#X obj 61 98 *~ 2.81;
#X obj 1 147 *~ 0.2;
#X obj 121 97 *~ 9.41;
#X obj 121 148 *~ 0.14;
#X connect 1 0 6 0;
#X connect 2 0 0 0;
#X connect 3 0 1 0;
#X connect 3 0 9 0;
#X connect 3 0 11 0;
#X connect 4 0 3 1;
#X connect 5 0 3 0;
#X connect 6 0 10 0;
#X connect 7 0 2 0;
#X connect 8 0 12 0;
#X connect 9 0 7 0;
#X connect 10 0 0 0;
#X connect 11 0 8 0;
#X connect 12 0 0 0;
#X restore -184 405 pd gears;
#N canvas 0 0 205 392 distance 0;
#X obj 5 93 inlet~;
#X obj 4 370 outlet~;
#X obj 5 346 +~;
#X obj 32 199 delwrite~ distance 1000;
#X obj 21 243 sig~;
#X obj 5 115 lop~ 100;
#X obj 21 303 vd~ distance;
#X obj 21 323 *~ 0.5;
#X obj 67 2 inlet;
#X obj 87 29 swap 1;
#X obj 87 50 -;
#X obj 87 92 + 50;
#X obj 5 137 lop~ 100;
#X obj 5 159 lop~ 100;
#X obj 21 283 +~ 2;
#X obj 21 263 *~ 3;
#X obj 87 71 * 6000;
#X connect 0 0 5 0;
#X connect 2 0 1 0;
#X connect 4 0 15 0;
#X connect 5 0 12 0;
#X connect 6 0 7 0;
#X connect 7 0 2 1;
#X connect 8 0 4 0;
#X connect 8 0 9 0;
#X connect 9 0 10 0;
#X connect 9 1 10 1;
#X connect 10 0 16 0;
#X connect 11 0 5 1;
#X connect 11 0 12 1;
#X connect 11 0 13 1;
#X connect 12 0 13 0;
#X connect 13 0 2 0;
#X connect 13 0 3 0;
#X connect 14 0 6 0;
#X connect 15 0 14 0;
#X connect 16 0 11 0;
#X restore 464 46 pd distance;
#X obj 463 -17 catch~ body;
#X obj -185 490 throw~ body;
#X obj -57 490 throw~ body;
#X obj -56 289 lop~ 0.6;
#X obj 634 49 throw~ body;
#X obj 81 490 throw~ body;
#X obj 99 379 lop~ 0.6;
#X obj 83 402 *~;
#X obj 99 358 sig~;
#X obj 787 466 hsl 64 12 0 1 0 1 \$0-tail-mix empty tail-mix 12 6 1
8 -262144 -1 -1 1260 1;
#X obj 98 447 r \$0-tail-mix;
#X obj 82 470 *~;
#X obj 634 25 *~;
#X obj 649 2 r \$0-rotor-mix;
#X obj 787 532 hsl 64 12 0 1 0 1 \$0-rotor-mix empty rotor-mix 12 6
1 8 -262144 -1 -1 1890 1;
#X obj 787 422 hsl 64 12 0 1 0 1 \$0-engine-mix empty engine-mix 6
6 1 8 -262144 -1 -1 3150 1;
#X obj -56 469 *~;
#X obj -40 445 r \$0-engine-mix;
#X obj -185 469 *~;
#X obj 787 488 hsl 64 12 0 1 0 1 \$0-gear-ratio empty gear-ratio 12
6 1 8 -262144 -1 -1 1890 1;
#X obj -133 383 + 2;
#X obj -133 362 * 12;
#X obj -133 339 r \$0-gear-ratio;
#X obj 787 510 hsl 64 12 0 1 0 1 \$0-gear-mix empty gear-mix 12 6 1
8 -262144 -1 -1 1260 1;
#X obj -169 425 r \$0-gear-mix;
#X obj -169 447 * 0.1;
#X obj 787 400 hsl 64 12 0 1 0 1 \$0-engine-speed empty engine-speed
0 6 1 8 -262144 -1 -1 630 1;
#X obj -56 229 r \$0-engine-speed;
#X obj -56 249 * 90;
#X obj -56 269 + 1;
#X obj 99 316 r \$0-tail-speed;
#X obj 787 444 hsl 64 12 0 1 0 1 \$0-tail-speed empty tail-speed 12
6 1 8 -262144 -1 -1 630 1;
#X obj 99 337 * 2;
#X obj 464 6 vrdel 500 3000 0.2;
#X obj 787 378 hsl 64 12 0 1 0 1 \$0-distance empty distance 10 6 1
8 -262144 -1 -1 3415 1;
#X obj 536 26 r \$0-distance;
#X obj 784 169 inlet;
#X obj 601 162 outlet~;
#X obj 959 253 pack f f f f;
#X obj 1052 216 loadbang;
#X obj 959 275 outlet;
#X floatatom 784 358 5 0 0 0 - - -;
#X obj 661 300 scale -90 240 0.1 0.9;
#X text -331 -254 customized helicopter sound \;;
#X obj 784 337 scale -10 10 0 1;
#X obj 784 193 route 1;
#N canvas 0 25 349 611 propeller-fan 0;
#N canvas 0 0 289 416 asymmetrical-curve 0;
#X obj -2 248 *~;
#X obj 131 106 *~ -1;
#X obj 131 131 +~ 1;
#X obj 115 154 *~;
#X obj 28 282 min~;
#X obj 30 371 cos~;
#X obj 30 393 outlet~;
#X obj 130 81 vline~;
#X msg 130 57 1 \$1 0 \, 0 0 \$1;
#X obj -3 101 sig~ 1;
#X obj -2 127 -~;
#X obj 45 64 sig~;
#X obj 29 307 *~;
#X obj 45 101 -~ 0.5;
#X obj 45 145 *~;
#X obj 45 123 *~ 3;
#X obj 45 22 * 0.6;
#X obj 45 43 + 0.2;
#X obj 45 189 +~ 3;
#X obj 45 167 *~ 3;
#X obj 30 350 -~ 0.25;
#X obj 29 328 *~ 0.25;
#X obj 45 1 inlet skew;
#X obj 130 34 inlet generate pulse;
#X connect 0 0 4 0;
#X connect 1 0 2 0;
#X connect 2 0 3 1;
#X connect 3 0 4 1;
#X connect 4 0 12 0;
#X connect 5 0 6 0;
#X connect 7 0 1 0;
#X connect 7 0 0 1;
#X connect 8 0 7 0;
#X connect 9 0 10 0;
#X connect 10 0 0 0;
#X connect 11 0 10 1;
#X connect 11 0 13 0;
#X connect 11 0 3 0;
#X connect 12 0 21 0;
#X connect 13 0 15 0;
#X connect 14 0 19 0;
#X connect 15 0 14 0;
#X connect 15 0 14 1;
#X connect 16 0 17 0;
#X connect 17 0 11 0;
#X connect 18 0 12 1;
#X connect 19 0 18 0;
#X connect 20 0 5 0;
#X connect 21 0 20 0;
#X connect 22 0 16 0;
#X connect 23 0 8 0;
#X restore 2 166 pd asymmetrical-curve;
#X obj 71 96 metro 100;
#X obj 71 77 tgl 15 0 empty empty empty 0 -6 0 8 -262144 -1 -1 1 1
;
#X obj 141 65 t f f;
#X obj 152 462 *~;
#X obj 133 238 *~ 220;
#X obj 133 297 +~ 120;
#X obj 116 361 *~;
#X obj 144 142 f;
#X obj 141 23 * 200;
#X obj 171 94 / 3;
#X obj 252 465 *~;
#X obj 252 506 *~;
#X obj 268 445 * 1.1;
#X obj 231 379 * 0.9;
#X obj 268 486 * 1.2;
#X obj 71 54 loadbang;
#N canvas 697 221 354 259 flatnoise 0;
#X obj 1 -25 noise~;
#X obj 1 183 *~;
#X obj 1 206 outlet~;
#X obj 1 156 *~;
#X obj 94 132 expr 0.1+(sqrt($f1)*0.6);
#X text 127 116 fix amp for Q;
#X text 124 79 fix amp for F;
#X obj 60 97 expr~ log(sqrt(5-($v1*$v1)*(0.00000011)));
#X obj 60 -26 inlet~ frequency;
#X obj 94 13 inlet resonance;
#X obj 1 61 vcf~ 100 1;
#X connect 0 0 10 0;
#X connect 1 0 2 0;
#X connect 3 0 1 0;
#X connect 4 0 1 1;
#X connect 7 0 3 1;
#X connect 8 0 7 0;
#X connect 8 0 10 1;
#X connect 9 0 4 0;
#X connect 9 0 10 2;
#X connect 10 0 3 0;
#X restore 133 338 pd flatnoise;
#X text 203 93 duty cycle;
#X obj 141 44 + 10;
#X obj 141 2 r \$0-period;
#X obj 170 258 r \$0-basef;
#X obj 170 277 * 400;
#X obj 170 215 * 600;
#X obj 170 194 r \$0-devf;
#X obj 212 296 r \$0-reson;
#X obj 231 358 * 300;
#X obj 215 401 *~;
#X obj 231 338 r \$0-shift;
#X obj 2 143 r \$0-symmetry;
#X obj 152 485 mdel 10 400 0.7;
#X obj 212 317 * 30;
#X obj 116 560 outlet~ audio;
#X obj 2 580 outlet~ blade signature;
#X obj 116 422 mdel 10 400 0.7;
#X obj 152 526 mdel 20 400 0.5;
#X connect 0 0 4 1;
#X connect 0 0 5 0;
#X connect 0 0 11 0;
#X connect 0 0 12 0;
#X connect 0 0 27 0;
#X connect 0 0 33 0;
#X connect 0 0 7 0;
#X connect 1 0 8 0;
#X connect 2 0 1 0;
#X connect 3 0 1 1;
#X connect 3 1 10 0;
#X connect 4 0 30 0;
#X connect 5 0 6 0;
#X connect 6 0 17 0;
#X connect 7 0 34 0;
#X connect 8 0 0 1;
#X connect 9 0 19 0;
#X connect 10 0 8 1;
#X connect 11 0 30 1;
#X connect 12 0 35 1;
#X connect 13 0 11 1;
#X connect 14 0 27 1;
#X connect 15 0 12 1;
#X connect 16 0 2 0;
#X connect 17 0 7 1;
#X connect 19 0 3 0;
#X connect 20 0 9 0;
#X connect 21 0 22 0;
#X connect 22 0 6 1;
#X connect 23 0 5 1;
#X connect 24 0 23 0;
#X connect 25 0 31 0;
#X connect 26 0 14 0;
#X connect 26 0 13 0;
#X connect 26 0 15 0;
#X connect 27 0 34 1;
#X connect 28 0 26 0;
#X connect 29 0 0 0;
#X connect 30 0 32 0;
#X connect 30 0 35 0;
#X connect 31 0 17 1;
#X connect 34 0 4 0;
#X connect 34 0 32 0;
#X connect 35 0 32 0;
#X restore 541 -17 pd propeller-fan;
#X obj 567 404 hsl 64 12 0 1 0 1 \$0-period empty period 12 6 1 8 -262144
-1 -1 6300 1;
#X obj 567 426 hsl 64 12 0 1 0 1 \$0-basef empty basef 12 6 1 8 -262144
-1 -1 1900 1;
#X obj 567 448 hsl 64 12 0 1 0 1 \$0-devf empty deviationf 7 6 1 8
-262144 -1 -1 5762 1;
#X obj 567 470 hsl 64 12 0 1 0 1 \$0-reson empty reson 7 6 1 8 -262144
-1 -1 900 1;
#X obj 567 492 hsl 64 12 0 1 0 1 \$0-shift empty shift 7 6 1 8 -262144
-1 -1 1400 1;
#X obj 567 514 hsl 64 12 0 1 0 1 \$0-symmetry empty symmetry 7 6 1
8 -262144 -1 -1 2800 1;
#X obj 971 371 unpack f f f f f f f f;
#X obj 971 328 loadbang;
#X msg 971 350 1 0.1 0.5 0.1 0.2 0.3 0.2 0.3;
#X floatatom -312 45 5 0 0 0 - - -;
#X floatatom -142 46 5 0 0 0 - - -;
#X floatatom 26 47 5 0 0 0 - - -;
#X floatatom 231 50 5 0 0 0 - - -;
#X obj -312 -27 curve~;
#X obj -143 -27 curve~;
#X obj 26 -27 curve~;
#X obj 231 -27 curve~;
#X msg -18 -208 5000;
#X obj 406 -213 bng 15 250 50 0 empty empty empty 17 7 0 10 -262144
-1 -1;
#X obj 425 -213 bng 15 250 50 0 empty empty empty 17 7 0 10 -262144
-1 -1;
#X obj 601 133 *~;
#X obj 917 -1 curve~;
#X obj 859 21 sig~;
#X msg 748 -50 1;
#X text -94 -210 start time \;;
#X text 874 217 hand panning \;;
#X text 780 -89 volume fade out \;;
#X text 1039 320 default setup \;;
#X obj 406 -260 inlet;
#X obj 406 -239 sel 1 2;
#X obj 746 56 selector~ 3, f 26;
#X msg -312 -153 1 \$1 -0.5 1 550 -0.5;
#X msg -143 -153 1 \$1 -0.5 1 550 -0.5;
#X msg 26 -153 0.15 \$1 -0.5 0.15 550 -0.5;
#X msg 231 -153 0.1 \$1 -0.5 0.1 550 -0.5;
#X obj 899 34 loadmess 0;
#X msg 829 -50 3;
#X msg 785 -50 2;
#X text -344 -153 on: \;;
#X text -350 -63 off: \;;
#X text 408 -150 stop time;
#X msg 1052 237 1;
#X obj 231 24 snapshot~;
#X obj 26 24 snapshot~;
#X obj -142 24 snapshot~ 5;
#X obj -312 24 snapshot~ 5;
#X obj 334 -17 metro 5;
#X obj 334 -41 loadmess 1;
#X obj 784 218 ../m_cart2sph;
#X msg 859 0 4;
#X msg -133 -63 1 0 -0.5 0.1 \$1 0.7;
#X msg -302 -63 1 0 -0.5 0.3 \$1 0.8;
#X msg 241 -63 0.1 0 -0.5 0.2 \$1 0.7;
#X msg 391 -133 20000;
#X msg 917 -23 4 0 -0.5 0 10000 -0.5;
#X obj 467 -92 spigot;
#X msg 501 -118 1;
#X msg 480 -134 0;
#X msg 36 -63 0.15 0 -0.5 1 \$1 0.6;
#X msg 390 -109 30000;
#X connect 0 0 20 0;
#X connect 1 0 15 0;
#X connect 2 0 22 0;
#X connect 3 0 71 0;
#X connect 4 0 37 0;
#X connect 7 0 2 0;
#X connect 7 0 11 0;
#X connect 7 0 0 0;
#X connect 10 0 11 1;
#X connect 11 0 1 0;
#X connect 12 0 10 0;
#X connect 14 0 15 1;
#X connect 15 0 9 0;
#X connect 16 0 8 0;
#X connect 17 0 16 1;
#X connect 20 0 6 0;
#X connect 21 0 20 1;
#X connect 22 0 5 0;
#X connect 24 0 2 1;
#X connect 25 0 24 0;
#X connect 26 0 25 0;
#X connect 28 0 29 0;
#X connect 29 0 22 1;
#X connect 31 0 32 0;
#X connect 32 0 33 0;
#X connect 33 0 7 0;
#X connect 34 0 36 0;
#X connect 36 0 12 0;
#X connect 37 0 3 0;
#X connect 39 0 3 1;
#X connect 40 0 49 0;
#X connect 42 0 44 0;
#X connect 43 0 92 0;
#X connect 45 0 38 0;
#X connect 46 0 53 0;
#X connect 48 0 45 0;
#X connect 49 0 99 0;
#X connect 50 0 37 1;
#X connect 50 1 16 0;
#X connect 57 0 51 0;
#X connect 57 1 30 0;
#X connect 57 2 19 0;
#X connect 57 3 35 0;
#X connect 57 4 13 0;
#X connect 57 5 23 0;
#X connect 57 6 27 0;
#X connect 57 7 18 0;
#X connect 58 0 59 0;
#X connect 59 0 57 0;
#X connect 60 0 23 0;
#X connect 61 0 30 0;
#X connect 62 0 51 0;
#X connect 63 0 27 0;
#X connect 64 0 96 0;
#X connect 65 0 95 0;
#X connect 66 0 94 0;
#X connect 66 1 106 0;
#X connect 67 0 93 0;
#X connect 68 0 85 0;
#X connect 68 0 84 0;
#X connect 68 0 83 0;
#X connect 68 0 82 0;
#X connect 69 0 74 0;
#X connect 69 0 68 0;
#X connect 69 0 108 0;
#X connect 70 0 104 0;
#X connect 70 0 110 0;
#X connect 71 0 41 0;
#X connect 72 0 81 2;
#X connect 73 0 81 1;
#X connect 74 0 81 0;
#X connect 74 0 100 0;
#X connect 79 0 80 0;
#X connect 80 0 69 0;
#X connect 80 1 70 0;
#X connect 80 2 87 0;
#X connect 81 0 71 1;
#X connect 82 0 64 0;
#X connect 83 0 65 0;
#X connect 84 0 66 0;
#X connect 85 0 67 0;
#X connect 86 0 81 3;
#X connect 87 0 81 0;
#X connect 88 0 81 0;
#X connect 88 0 105 0;
#X connect 92 0 42 3;
#X connect 93 0 63 0;
#X connect 94 0 62 0;
#X connect 95 0 61 0;
#X connect 96 0 60 0;
#X connect 97 0 96 0;
#X connect 97 0 95 0;
#X connect 97 0 94 0;
#X connect 97 0 93 0;
#X connect 98 0 97 0;
#X connect 99 0 42 0;
#X connect 99 0 48 0;
#X connect 99 1 42 1;
#X connect 99 1 46 0;
#X connect 99 2 42 2;
#X connect 100 0 73 0;
#X connect 101 0 65 0;
#X connect 102 0 64 0;
#X connect 103 0 67 0;
#X connect 104 0 103 0;
#X connect 104 0 101 0;
#X connect 104 0 102 0;
#X connect 104 0 107 0;
#X connect 105 0 72 0;
#X connect 106 0 88 0;
#X connect 107 0 106 1;
#X connect 108 0 106 1;
#X connect 109 0 66 0;
#X connect 110 0 109 0;
