#N canvas 579 167 1440 847 12;
#X obj 505 318 expr $f1*(180/3.14159);
#X text 87 295 r = d \; phi = a \; theta = e;
#X obj 172 92 inlet;
#X obj 171 388 outlet;
#X obj 338 388 outlet;
#X obj 505 388 outlet;
#X obj 506 230 scale 0 1 -1 1;
#X text 232 329 rad to degree;
#X text 32 232 scale to room in m;
#X obj 172 116 unpack f f f, f 72;
#X obj 702 116 r global_scale;
#X text 79 92 leap motion \; 0: x \; 1: y \; 2: z \;;
#X obj 702 139 * -1;
#X floatatom 702 163 5 0 0 0 - - -;
#X obj 172 279 zexy/cart2sph, f 48;
#X text 155 388 r;
#X text 308 389 phi;
#X text 463 389 theta;
#X obj 172 230 scale 0 1;
#X obj 339 230 scale 0 1;
#X obj 338 318 expr $f1*(180/3.14159);
#X obj 338 342 - 270;
#X obj 338 365 mod 360;
#X connect 0 0 5 0;
#X connect 2 0 9 0;
#X connect 6 0 14 2;
#X connect 9 0 18 0;
#X connect 9 1 19 0;
#X connect 9 2 6 0;
#X connect 10 0 12 0;
#X connect 10 0 18 4;
#X connect 10 0 19 4;
#X connect 12 0 13 0;
#X connect 13 0 18 3;
#X connect 13 0 19 3;
#X connect 14 0 3 0;
#X connect 14 1 20 0;
#X connect 14 2 0 0;
#X connect 18 0 14 0;
#X connect 19 0 14 1;
#X connect 20 0 21 0;
#X connect 21 0 22 0;
#X connect 22 0 4 0;
