#N canvas 353 72 1140 681 12;
#X declare -lib zexy;
#X declare -lib cyclone;
#N canvas 0 25 1440 847 wt_drone 0;
#X obj 158 404 +~;
#X floatatom 158 280 5 0 0 0 - - - 0;
#X obj 176 372 *~, f 10;
#X floatatom 243 348 5 0 0 0 - - - 0;
#X obj 158 510 overdrive~ 5;
#X obj 158 486 *~ 0.1;
#N canvas 0 0 450 300 (subpatch) 0;
#X array table10 259 float 5;
#A 0 -0.397894 -0.4 -0.397894 -0.391601 -0.381197 -0.366809 -0.348612 -0.326824 -0.301708 -0.273565 -0.242732 -0.209575 -0.174484 -0.137871 -0.100159 -0.0617837 -0.0231788 0.0152236 0.0530008 0.0897454 0.12507 0.158614 0.190045 0.219065 0.245417 0.268881 0.289283 0.306495 0.320434 0.331065 0.3384 0.342495 0.343454 0.341421 0.33658 0.329151 0.319385 0.307563 0.293988 0.278983 0.262881 0.246026 0.228761 0.211428 0.194361 0.17788 0.162284 0.147854 0.13484 0.123464 0.113911 0.106333 0.100841 -0.251082 -0.439385 -0.64339 -0.64339 -0.64339 -0.64339 -0.64339 -0.64339 -0.64339 -0.64339 -0.64339 -0.644959 -0.646528 -0.648098 -0.649667 -0.651236 -0.652806 -0.654375 -0.655944 -0.657513 -0.659083 -0.659083 -0.659083 -0.659083 -0.659083 -0.659083 -0.659083 0.141246 0.204016 0.219709 0.235402 0.245864 0.256325 0.266787 0.277249 0.287711 0.298173 0.308635 0.319096 0.329558 0.345251 0.357805 0.370359 0.382913 0.395468 0.408022 0.408022 0.408022 -0.12554 -0.109846 -0.0975158 -0.0851858 -0.0728558 -0.0605258 -0.0481958 -0.0358658 -0.0235358 -0.0112059 0.00112413 0.0134541 0.0257841 0.0381141 0.0504441 0.0627741 0.0627741 0.0627741 0.0627741 0.0627741 0.0627741 0.0627741 0.0627741 0.0627741 0.0627741 0.0627741 0.0627741 0.0627741 0.0627741 0.0627741 0.0627741 0.0627741 0.0627741 0.0627741 0.0627741 0.0627741 0.0627741 0.0627741 0.0627741 0.0519099 0.0410457 0.0301815 0.0193173 0.00845314 -0.00241105 -0.0132752 -0.0241394 -0.0350036 -0.0458678 -0.056732 -0.0675962 -0.0784603 -0.0863067 -0.094153 -0.119654 -0.145154 -0.170655 0.345224 0.331773 0.334015 0.336257 0.338498 0.34074 0.342982 0.345224 0.35126 0.357295 0.363331 0.369367 0.375402 0.381438 0.387473 0.393509 0.399545 0.40558 0.411616 0.417652 0.423687 0.428918 0.434149 0.43938 0.443864 0.448347 0.452831 0.457315 0.461798 0.466282 0.470766 0.475249 0.479733 0.484217 0.4887 0.493184 0.497667 0.502151 0.506635 0.511118 0.515602 0.520086 0.524569 0.529053 0.533537 0.53802 0.542504 0.546988 0.551471 0.555955 0.560438 0.564922 0.570526 0.576131 0.581736 0.58734 0.592945 0.598549 0.604154 0.609758 0.615363 0.620968 0.626572 0.632177 0.637781 0.643386 0.643385 0.643385 0.643385 0.643385 0.643385 0.643385 0.320437 0.306499 0.289287 0.268885 0.245422 0.219071 0.190051 0.158621 0.125078 0.0897532 0.0530089 0.0152318 -0.0231704 -0.0617754 -0.100151 -0.137862 -0.174476 -0.209567 -0.242725 -0.273559 -0.301702 -0.326818 -0.348607 -0.366806 -0.381194 -0.391599 -0.397893 -0.4 -0.397895;
#X coords 0 1.02 258 -1.02 258 130 1;
#X restore 1009 440 graph;
#X obj 158 575 *~ 0.5;
#X obj 176 347 osc~ 110;
#X msg 1011 577 \; table10 cosinesum 256 0.2 -0.2 0 -0.2 0 -0.2 0;
#X obj 374 74 inlet;
#X obj 614 295 unpack f f f, f 38;
#X obj 374 135 unpack f f f, f 43;
#X obj 176 313 * 2, f 5;
#X obj 158 256 t b f;
#X obj 158 546 svf~ 1000 0.3;
#X obj 374 102 route 1;
#X obj 614 261 route 2;
#X obj 222 699 delwrite~ chorus 50;
#X obj 222 647 delread4~ chorus 50;
#X obj 222 671 *~;
#X obj 222 599 osc~ 1;
#X obj 222 623 scale~ -1 1 1 10;
#X obj 470 652 *~;
#X obj 470 604 scale~ -1 1 2 9;
#X obj 470 580 osc~ 0.9;
#X obj 387 549 downsamp~ 8;
#X obj 470 628 delread4~ chorus2 50;
#X obj 470 680 delwrite~ chorus2 50;
#X obj 387 486 overdrive~ 2;
#X obj 860 429 pack f f f f;
#X obj 863 617 outlet;
#X obj 158 729 hip~ 120;
#X obj 158 802 outlet~;
#X obj 387 707 hip~ 120;
#X obj 387 791 outlet~;
#X obj 158 432 tabosc4~ table10;
#X obj 169 699 *~ 0.3;
#X obj 419 676 *~ 0.3;
#X obj 387 512 svf~ 1000 0.3;
#X obj 535 418 osc~;
#X obj 491 442 *~;
#X obj 491 418 pink~;
#X obj 491 465 overdrive~ 20;
#X obj 491 512 *~;
#X obj 796 185 pack f f f f;
#N canvas 0 25 1440 847 oscillators 0;
#X obj 241 56 inlet;
#X obj 241 135 ftom;
#X obj 367 399 +~;
#X obj 239 400 +~;
#X obj 239 253 mtof;
#X obj 367 250 mtof;
#X obj 506 399 +~;
#X obj 506 250 mtof;
#X obj 506 451 *~ 0.5;
#X obj 367 451 *~;
#X obj 506 427 osc~;
#X obj 367 427 osc~;
#X obj 239 427 osc~;
#X obj 239 229 + 15;
#X obj 367 226 + 19;
#X obj 506 226 + 22;
#X obj 111 210 inlet~;
#X obj 239 511 outlet~;
#X obj 624 251 *~;
#X obj 623 227 tabosc4~ table10;
#X obj 755 227 tabosc4~ table10;
#X obj 755 251 *~ 0.9;
#X obj 755 200 * 1.01;
#X obj 624 511 outlet~;
#X text 198 197 root note + transposed intervals;
#X text 748 169 slight detune;
#X connect 0 0 1 0;
#X connect 0 0 19 0;
#X connect 0 0 22 0;
#X connect 1 0 13 0;
#X connect 1 0 15 0;
#X connect 1 0 14 0;
#X connect 2 0 11 0;
#X connect 3 0 12 0;
#X connect 4 0 3 0;
#X connect 5 0 2 0;
#X connect 6 0 10 0;
#X connect 7 0 6 0;
#X connect 8 0 17 0;
#X connect 9 0 17 0;
#X connect 10 0 8 0;
#X connect 11 0 9 0;
#X connect 12 0 17 0;
#X connect 13 0 4 0;
#X connect 14 0 5 0;
#X connect 15 0 7 0;
#X connect 16 0 3 1;
#X connect 16 0 2 1;
#X connect 16 0 6 1;
#X connect 18 0 23 0;
#X connect 19 0 18 0;
#X connect 20 0 21 0;
#X connect 21 0 23 0;
#X connect 22 0 20 0;
#X restore 292 432 pd oscillators;
#X obj 374 159 scale 0 1 200 220;
#X obj 523 164 scale 0 1 1 10;
#X obj 374 183 scale 0 1 2 100;
#X obj 243 324 +;
#X obj 877 339 scale 0 1 200 1000;
#X obj 672 164 scale 0 1 0 0.7;
#X obj 614 324 scale 0 1 0 0.7;
#X obj 522 189 scale 0 1 100 2000;
#X obj 745 323 scale 0 1 2000 0;
#X obj 745 348 scale 0 1 0.005 5;
#X obj 158 220 scale 0 1 2 10;
#X obj 387 462 *~ 0.2;
#X obj 509 490 * 0.08;
#X obj 387 731 *~;
#X obj 158 753 *~;
#X text 530 43 control drone 1 with left hand (panning included) \; drone 2 with right hand (panning included) z axis for volume \;;
#X text 66 349 fm modulator \;;
#X text 49 433 read wavetable \;;
#X text 120 536 fx \;;
#X text 84 728 high pass \;;
#X text 41 754 volume control \;;
#X text 587 587 fx \;;
#X text 620 622 chorus \;;
#X text 1087 418 write your own waveform: \;;
#X text 918 313 panning R \;;
#X text 801 104 panning L \;;
#N canvas 0 25 1440 847 fader 0;
#X obj 485 180 curve~;
#X obj 300 224 selector~ 2;
#X obj 485 105 bng 15 250 50 0 empty empty empty 17 7 0 10 #fcfcfc #000000 #000000;
#X obj 337 179 curve~;
#X msg 387 131 1;
#X obj 337 104 bng 15 250 50 0 empty empty empty 17 7 0 10 #fcfcfc #000000 #000000;
#X msg 535 132 2;
#X msg 485 132 10000;
#X text 336 71 fade in;
#X text 547 71 fade out;
#X obj 300 248 outlet~;
#X obj 337 45 inlet;
#X obj 485 46 inlet;
#X msg 485 156 1 0 -0.5 0 \$1 -0.5;
#X msg 337 131 30000;
#X msg 337 155 0 0 -0.1 1 \$1 -0.5;
#X connect 0 0 1 2;
#X connect 1 0 10 0;
#X connect 2 0 7 0;
#X connect 2 0 6 0;
#X connect 3 0 1 1;
#X connect 4 0 1 0;
#X connect 5 0 14 0;
#X connect 5 0 4 0;
#X connect 6 0 1 0;
#X connect 7 0 13 0;
#X connect 11 0 5 0;
#X connect 12 0 2 0;
#X connect 13 0 0 0;
#X connect 14 0 15 0;
#X connect 15 0 3 0;
#X restore 119 106 pd fader;
#X obj 119 23 inlet;
#X obj 158 777 *~;
#X obj 387 761 *~;
#X msg 186 106 0;
#X obj 119 47 sel 2 3;
#X obj 186 130 sig~;
#X msg 52 106 1;
#X msg 86 106 2;
#X obj 112 154 selector~ 2;
#X obj 877 163 loadmess 2;
#X obj 941 402 loadmess 3;
#X obj 796 133 abstractions/m_cart2sph;
#X obj 860 372 abstractions/m_cart2sph;
#X connect 0 0 36 0;
#X connect 1 0 0 0;
#X connect 1 0 13 0;
#X connect 1 0 46 1;
#X connect 2 0 0 1;
#X connect 2 0 46 0;
#X connect 3 0 2 1;
#X connect 4 0 15 0;
#X connect 5 0 4 0;
#X connect 7 0 18 0;
#X connect 7 0 32 0;
#X connect 8 0 2 0;
#X connect 10 0 16 0;
#X connect 10 0 17 0;
#X connect 11 0 53 0;
#X connect 11 0 59 0;
#X connect 11 1 55 0;
#X connect 11 1 56 0;
#X connect 11 2 51 0;
#X connect 11 2 60 1;
#X connect 12 0 47 0;
#X connect 12 0 49 0;
#X connect 12 1 48 0;
#X connect 12 1 54 0;
#X connect 12 2 52 0;
#X connect 12 2 57 0;
#X connect 12 2 61 1;
#X connect 13 0 8 0;
#X connect 14 0 1 0;
#X connect 14 1 13 1;
#X connect 15 0 7 0;
#X connect 16 0 12 0;
#X connect 16 0 85 0;
#X connect 17 0 11 0;
#X connect 17 0 86 0;
#X connect 19 0 20 0;
#X connect 19 0 37 0;
#X connect 20 0 18 0;
#X connect 21 0 22 0;
#X connect 22 0 19 0;
#X connect 23 0 28 0;
#X connect 24 0 27 0;
#X connect 25 0 24 0;
#X connect 26 0 28 0;
#X connect 26 0 34 0;
#X connect 27 0 23 0;
#X connect 27 0 38 0;
#X connect 29 0 39 0;
#X connect 30 0 31 0;
#X connect 32 0 61 0;
#X connect 34 0 60 0;
#X connect 36 0 5 0;
#X connect 37 0 32 0;
#X connect 38 0 34 0;
#X connect 39 0 26 0;
#X connect 40 0 41 1;
#X connect 41 0 43 0;
#X connect 42 0 41 0;
#X connect 43 0 44 0;
#X connect 44 0 26 0;
#X connect 45 0 31 0;
#X connect 46 0 5 0;
#X connect 46 1 58 0;
#X connect 47 0 1 0;
#X connect 48 0 26 1;
#X connect 49 0 50 0;
#X connect 50 0 3 0;
#X connect 51 0 50 1;
#X connect 52 0 20 1;
#X connect 53 0 23 1;
#X connect 54 0 15 1;
#X connect 55 0 39 1;
#X connect 56 0 40 0;
#X connect 57 0 14 0;
#X connect 58 0 29 0;
#X connect 59 0 44 1;
#X connect 60 0 76 0;
#X connect 61 0 75 0;
#X connect 73 0 82 1;
#X connect 74 0 78 0;
#X connect 75 0 33 0;
#X connect 76 0 35 0;
#X connect 77 0 79 0;
#X connect 78 0 73 0;
#X connect 78 0 80 0;
#X connect 78 1 73 1;
#X connect 78 1 80 0;
#X connect 78 2 77 0;
#X connect 78 2 81 0;
#X connect 79 0 82 2;
#X connect 80 0 82 0;
#X connect 81 0 82 0;
#X connect 82 0 75 1;
#X connect 82 0 76 1;
#X connect 83 0 45 3;
#X connect 84 0 30 3;
#X connect 85 0 45 0;
#X connect 85 1 45 1;
#X connect 85 2 45 2;
#X connect 86 0 30 0;
#X connect 86 1 30 1;
#X connect 86 2 30 2;
#X restore 216 433 pd wt_drone;
#X f 17;
#N canvas 0 25 893 847 gesture_change 0;
#X obj 435 169 loadmess 1;
#X obj 435 199 tgl 15 0 empty empty empty 17 7 0 10 #fcfcfc #000000 #000000 0 1;
#X obj 335 144 inlet;
#X text 76 89 if screenTap route immediately (because of difficulty to recognize) \;, f 30;
#X text 75 43 count repetition of incoming gestures \; if 10 then open spigot and update gesture \; counter reset every 1000ms \;;
#X obj 335 217 bng 15 250 50 0 empty empty empty 17 7 0 10 #fcfcfc #000000 #000000;
#X obj 335 168 list2symbol;
#X text 189 215 incoming gestures \;;
#X obj 335 383 outlet;
#X obj 335 193 sel keyTap;
#X obj 335 333 sel 10;
#X obj 335 309 counter 0 10;
#X obj 335 360 counter 0 4;
#X obj 435 223 metro 2000;
#X connect 0 0 1 0;
#X connect 1 0 13 0;
#X connect 2 0 6 0;
#X connect 5 0 11 0;
#X connect 6 0 9 0;
#X connect 9 0 5 0;
#X connect 10 0 12 0;
#X connect 11 0 10 0;
#X connect 12 0 8 0;
#X connect 13 0 11 3;
#X restore 159 196 pd gesture_change;
#X f 18;
#N canvas 0 25 1920 964 harmonies 1;
#X obj 863 32 inlet;
#X obj 134 794 osc~;
#X obj 184 794 osc~;
#X obj 234 794 osc~;
#X obj 284 794 osc~;
#X obj 349 794 osc~;
#X obj 417 794 osc~;
#X obj 180 582 osc~;
#X obj 180 646 *~, f 6;
#X floatatom 219 624 5 0 0 0 - - - 0;
#X obj 134 716 +~, f 7;
#X obj 1114 490 outlet;
#X obj 863 86 route 101;
#X obj 863 180 pack f f f f, f 16;
#X msg 972 127 4;
#X obj 1822 97 loadbang;
#X obj 1033 180 pack f f f f, f 16;
#X obj 1203 180 pack f f f f, f 16;
#X obj 1373 180 pack f f f f, f 16;
#X obj 1543 180 pack f f f f, f 16;
#X obj 1713 180 pack f f f f, f 16;
#X msg 1142 126 5;
#X msg 1312 126 6;
#X msg 1482 126 7;
#X msg 1652 126 8;
#X msg 1822 126 9;
#X obj 417 859 *~;
#X obj 349 858 *~;
#X obj 284 858 *~;
#X obj 500 818 *~ 10;
#X obj 234 858 *~;
#X obj 184 858 *~;
#X obj 134 858 *~;
#X obj 184 769 *~ 2;
#X obj 284 769 *~ 8;
#X obj 417 768 *~ 16;
#X obj 234 767 *~ 10;
#X obj 349 768 *~ 24;
#X obj 500 794 scale~ 0 1 -0.02 0.02;
#X obj 500 770 osc~;
#X floatatom 179 384 10 0 0 0 - - - 0;
#X obj 198 457 osc~;
#X floatatom 198 426 5 0 0 0 - - - 0;
#X obj 198 511 *~;
#X floatatom 458 278 5 0 0 0 - - - 0;
#X obj 180 551 +~;
#X floatatom 179 291 5 0 0 0 - - - 0;
#X obj 179 361 * 0.12;
#X floatatom 649 224 5 0 0 0 - - - 0;
#X floatatom 458 224 5 0 0 0 - - - 0;
#X obj 458 251 * 1.1;
#X obj 649 298 t b f;
#X obj 649 256 * 0.22;
#X obj 634 890 *~ 0.1;
#X obj 703 760 +;
#X obj 703 784 / 2;
#X obj 703 811 + 20;
#X obj 620 256 * 3;
#X obj 703 835 delread4~ delay 4000;
#X obj 730 912 delwrite~ delay 4000;
#X obj 703 884 svf~ 400 0.7;
#X obj 703 860 *~ 0.1;
#X obj 267 159 unpack f f f, f 55;
#X obj 267 186 scale 0 1 1 1000;
#X obj 458 186 scale 0 1 5 1000;
#X obj 649 186 scale 0 1 5 1500;
#X obj 134 690 /;
#X obj 688 336 > 400;
#X obj 649 321 +;
#X obj 649 363 spigot;
#X obj 216 489 +;
#X obj 649 387 t b f;
#X obj 267 135 route 1;
#X obj 1114 447 spigot;
#X obj 1174 447 spigot;
#X obj 1234 447 spigot;
#X obj 1294 447 spigot;
#X obj 1354 447 spigot;
#X obj 1414 447 spigot;
#X obj 1386 246 route 2;
#X obj 1386 270 unpack f f f;
#X floatatom 1467 331 5 0 0 0 - - - 0;
#X obj 1467 394 > 0.1;
#X obj 1517 394 > 0.2;
#X floatatom 1467 418 5 0 0 0 - - - 0;
#X floatatom 1517 418 5 0 0 0 - - - 0;
#X floatatom 1567 418 5 0 0 0 - - - 0;
#X floatatom 1617 418 5 0 0 0 - - - 0;
#X floatatom 1667 418 5 0 0 0 - - - 0;
#X floatatom 1717 418 5 0 0 0 - - - 0;
#X obj 1567 394 > 0.3;
#X obj 1617 394 > 0.4;
#X obj 1667 394 > 0.5;
#X obj 1717 394 >= 0.6;
#X obj 1033 86 route 102;
#X obj 1202 86 route 103;
#X obj 1373 86 route 103;
#X obj 1543 86 route 104;
#X obj 1713 86 route 105;
#X obj 150 930 *~;
#X obj 151 1029 outlet~;
#X obj 210 930 *~;
#X obj 270 930 *~;
#X obj 330 930 *~;
#X obj 390 929 *~;
#X obj 450 930 *~;
#X obj 211 1029 outlet~;
#X obj 271 1029 outlet~;
#X obj 341 1029 outlet~;
#X obj 401 1029 outlet~;
#X obj 461 1029 outlet~;
#X obj 1468 301 scale 0 1 0 0.6;
#X text 153 145 SYNTH \;;
#X text 120 290 macro 1 \;;
#X text 29 358 operator 1 base freq \;;
#X text 98 455 fm operator 1 \;;
#X text 75 581 fm operator 2 \;;
#X text 46 687 base freq \;;
#X text 11 771 carrier oscillators \;;
#X text 235 646 intensity 2 \;;
#X text 231 512 intensity 1 \;;
#X text 242 425 operator 2 base freq \;;
#X text 399 226 macro 2 \;;
#X text 586 223 macro 3 \;;
#X text 1217 45 incoming iannix aed \;;
#X text 1486 275 increment number of panned channels \;;
#X text 756 802 delay \;;
#X text 535 767 ring modulation \;;
#N canvas 0 25 1440 847 fader 0;
#X obj 485 180 curve~;
#X obj 300 224 selector~ 2;
#X obj 485 105 bng 15 250 50 0 empty empty empty 17 7 0 10 #fcfcfc #000000 #000000;
#X obj 337 179 curve~;
#X msg 387 131 1;
#X obj 337 104 bng 15 250 50 0 empty empty empty 17 7 0 10 #fcfcfc #000000 #000000;
#X msg 535 132 2;
#X msg 485 132 10000;
#X text 336 71 fade in;
#X text 547 71 fade out;
#X obj 300 248 outlet~;
#X obj 337 45 inlet;
#X obj 485 46 inlet;
#X msg 485 156 1 0 -0.5 0 \$1 -0.5;
#X msg 337 131 30000;
#X msg 337 155 0 0 -0.1 1 \$1 -0.5;
#X connect 0 0 1 2;
#X connect 1 0 10 0;
#X connect 2 0 7 0;
#X connect 2 0 6 0;
#X connect 3 0 1 1;
#X connect 4 0 1 0;
#X connect 5 0 14 0;
#X connect 5 0 4 0;
#X connect 6 0 1 0;
#X connect 7 0 13 0;
#X connect 11 0 5 0;
#X connect 12 0 2 0;
#X connect 13 0 0 0;
#X connect 14 0 15 0;
#X connect 15 0 3 0;
#X restore 1017 953 pd fader;
#X obj 806 33 inlet;
#X obj 150 995 *~;
#X obj 210 995 *~;
#X obj 270 995 *~;
#X obj 330 995 *~;
#X obj 390 994 *~;
#X obj 450 995 *~;
#X msg 1091 928 0;
#X obj 1017 886 sel 3 4;
#X text 1089 853 sound selection dependent volume \; sound 3 = fade in \; sound 4 = fade out \; other = off \;;
#X obj 1350 612 line;
#X obj 1410 612 line;
#X obj 1460 612 line;
#X obj 1520 612 line;
#X obj 1580 612 line;
#X obj 1640 612 line;
#X msg 1350 586 \$1 100;
#X msg 1410 586 \$1 100;
#X msg 1460 586 \$1 100;
#X msg 1520 586 \$1 100;
#X msg 1580 586 \$1 100;
#X msg 1640 586 \$1 100;
#X msg 1754 568 0.01;
#X obj 1754 545 loadbang;
#X obj 863 156 abstractions/m_cart2sph;
#X obj 1033 156 abstractions/m_cart2sph;
#X obj 1202 156 abstractions/m_cart2sph;
#X obj 1373 156 abstractions/m_cart2sph;
#X obj 1543 156 abstractions/m_cart2sph;
#X obj 1713 156 abstractions/m_cart2sph;
#X connect 0 0 12 0;
#X connect 0 0 72 0;
#X connect 0 0 79 0;
#X connect 0 0 94 0;
#X connect 0 0 95 0;
#X connect 0 0 96 0;
#X connect 0 0 97 0;
#X connect 0 0 98 0;
#X connect 1 0 32 0;
#X connect 2 0 31 0;
#X connect 3 0 30 0;
#X connect 4 0 28 0;
#X connect 5 0 27 0;
#X connect 6 0 26 0;
#X connect 7 0 8 0;
#X connect 8 0 10 1;
#X connect 9 0 8 1;
#X connect 10 0 1 0;
#X connect 10 0 33 0;
#X connect 10 0 34 0;
#X connect 10 0 35 0;
#X connect 10 0 36 0;
#X connect 10 0 37 0;
#X connect 12 0 153 0;
#X connect 13 0 73 0;
#X connect 14 0 13 3;
#X connect 15 0 14 0;
#X connect 15 0 21 0;
#X connect 15 0 22 0;
#X connect 15 0 23 0;
#X connect 15 0 24 0;
#X connect 15 0 25 0;
#X connect 16 0 74 0;
#X connect 17 0 75 0;
#X connect 18 0 76 0;
#X connect 19 0 77 0;
#X connect 20 0 78 0;
#X connect 21 0 16 3;
#X connect 22 0 17 3;
#X connect 23 0 18 3;
#X connect 24 0 19 3;
#X connect 25 0 20 3;
#X connect 26 0 53 0;
#X connect 26 0 105 0;
#X connect 27 0 53 0;
#X connect 27 0 104 0;
#X connect 28 0 53 0;
#X connect 28 0 103 0;
#X connect 29 0 30 1;
#X connect 29 0 31 1;
#X connect 29 0 32 1;
#X connect 30 0 53 0;
#X connect 30 0 102 0;
#X connect 31 0 53 0;
#X connect 31 0 101 0;
#X connect 32 0 53 0;
#X connect 32 0 99 0;
#X connect 33 0 2 0;
#X connect 34 0 4 0;
#X connect 35 0 6 0;
#X connect 36 0 3 0;
#X connect 37 0 5 0;
#X connect 38 0 26 1;
#X connect 38 0 27 1;
#X connect 38 0 28 1;
#X connect 38 0 29 0;
#X connect 39 0 38 0;
#X connect 40 0 45 0;
#X connect 41 0 43 0;
#X connect 42 0 41 0;
#X connect 43 0 45 1;
#X connect 44 0 70 0;
#X connect 45 0 7 0;
#X connect 46 0 9 0;
#X connect 46 0 47 0;
#X connect 46 0 54 1;
#X connect 46 0 47 1;
#X connect 47 0 40 0;
#X connect 48 0 52 0;
#X connect 48 0 57 0;
#X connect 49 0 50 0;
#X connect 49 0 54 0;
#X connect 50 0 44 0;
#X connect 50 0 66 0;
#X connect 51 0 49 0;
#X connect 51 0 68 0;
#X connect 51 1 66 1;
#X connect 51 1 68 1;
#X connect 52 0 51 0;
#X connect 52 0 39 0;
#X connect 53 0 59 0;
#X connect 54 0 55 0;
#X connect 55 0 56 0;
#X connect 56 0 58 0;
#X connect 57 0 42 0;
#X connect 58 0 61 0;
#X connect 58 0 101 0;
#X connect 58 0 102 0;
#X connect 58 0 103 0;
#X connect 58 0 104 0;
#X connect 58 0 105 0;
#X connect 60 1 59 0;
#X connect 61 0 60 0;
#X connect 62 0 63 0;
#X connect 62 1 64 0;
#X connect 62 2 65 0;
#X connect 63 0 46 0;
#X connect 64 0 49 0;
#X connect 64 0 67 0;
#X connect 65 0 48 0;
#X connect 66 0 10 0;
#X connect 67 0 69 1;
#X connect 68 0 69 0;
#X connect 69 0 71 0;
#X connect 70 0 43 1;
#X connect 71 0 44 0;
#X connect 71 1 70 1;
#X connect 72 0 62 0;
#X connect 73 0 11 0;
#X connect 74 0 11 0;
#X connect 75 0 11 0;
#X connect 76 0 11 0;
#X connect 77 0 11 0;
#X connect 78 0 11 0;
#X connect 79 0 80 0;
#X connect 80 2 111 0;
#X connect 81 0 82 0;
#X connect 81 0 83 0;
#X connect 81 0 92 0;
#X connect 81 0 90 0;
#X connect 81 0 91 0;
#X connect 81 0 93 0;
#X connect 82 0 84 0;
#X connect 83 0 85 0;
#X connect 84 0 73 1;
#X connect 84 0 145 0;
#X connect 85 0 74 1;
#X connect 85 0 146 0;
#X connect 86 0 75 1;
#X connect 86 0 147 0;
#X connect 87 0 76 1;
#X connect 87 0 148 0;
#X connect 88 0 77 1;
#X connect 88 0 149 0;
#X connect 89 0 78 1;
#X connect 89 0 150 0;
#X connect 90 0 86 0;
#X connect 91 0 87 0;
#X connect 92 0 88 0;
#X connect 93 0 89 0;
#X connect 94 0 154 0;
#X connect 95 0 155 0;
#X connect 96 0 156 0;
#X connect 97 0 157 0;
#X connect 98 0 158 0;
#X connect 99 0 130 0;
#X connect 101 0 131 0;
#X connect 102 0 132 0;
#X connect 103 0 133 0;
#X connect 104 0 134 0;
#X connect 105 0 135 0;
#X connect 111 0 81 0;
#X connect 128 0 135 1;
#X connect 128 0 134 1;
#X connect 128 0 133 1;
#X connect 128 0 132 1;
#X connect 128 0 131 1;
#X connect 128 0 130 1;
#X connect 129 0 137 0;
#X connect 130 0 100 0;
#X connect 131 0 106 0;
#X connect 132 0 107 0;
#X connect 133 0 108 0;
#X connect 134 0 109 0;
#X connect 135 0 110 0;
#X connect 136 0 130 1;
#X connect 136 0 131 1;
#X connect 136 0 132 1;
#X connect 136 0 133 1;
#X connect 136 0 134 1;
#X connect 136 0 135 1;
#X connect 137 0 128 0;
#X connect 137 1 128 1;
#X connect 137 2 136 0;
#X connect 139 0 99 1;
#X connect 140 0 101 1;
#X connect 141 0 102 1;
#X connect 142 0 103 1;
#X connect 143 0 104 1;
#X connect 144 0 105 1;
#X connect 145 0 139 0;
#X connect 146 0 140 0;
#X connect 147 0 141 0;
#X connect 148 0 142 0;
#X connect 149 0 143 0;
#X connect 150 0 144 0;
#X connect 151 0 144 2;
#X connect 151 0 143 2;
#X connect 151 0 142 2;
#X connect 151 0 141 2;
#X connect 151 0 140 2;
#X connect 151 0 139 2;
#X connect 152 0 151 0;
#X connect 153 0 13 0;
#X connect 153 1 13 1;
#X connect 153 2 13 2;
#X connect 154 0 16 0;
#X connect 154 1 16 1;
#X connect 154 2 16 2;
#X connect 155 0 17 0;
#X connect 155 1 17 1;
#X connect 155 2 17 2;
#X connect 156 0 18 0;
#X connect 156 1 18 1;
#X connect 156 2 18 2;
#X connect 157 0 19 0;
#X connect 157 1 19 1;
#X connect 157 2 19 2;
#X connect 158 0 20 0;
#X connect 158 1 20 1;
#X connect 158 2 20 2;
#X restore 275 473 pd harmonies;
#X f 19;
#N canvas -1315 55 1252 775 osc_send 0;
#X msg 497 353 disconnect;
#X obj 171 289 mrpeach/packOSC;
#X obj 398 503 mrpeach/udpsend;
#X msg 171 184 send /dome/distance \$2 \$1;
#X msg 191 214 send /dome/azimuth \$2 \$1;
#X msg 211 244 send /dome/elevation \$2 \$1;
#N canvas 0 25 1440 847 split2aed+channel 0;
#X obj 351 357 pack f f;
#X obj 465 357 pack f f;
#X obj 581 357 pack f f;
#X obj 351 381 outlet;
#X obj 465 381 outlet;
#X obj 581 381 outlet;
#X obj 350 184 inlet;
#X obj 350 208 unpack f f f f, f 50;
#X floatatom 698 260 5 0 0 0 - - - 0;
#X connect 0 0 3 0;
#X connect 1 0 4 0;
#X connect 2 0 5 0;
#X connect 6 0 7 0;
#X connect 7 0 0 0;
#X connect 7 1 1 0;
#X connect 7 2 2 0;
#X connect 7 3 8 0;
#X connect 8 0 1 1;
#X connect 8 0 0 1;
#X connect 8 0 2 1;
#X restore 171 152 pd split2aed+channel;
#X text 289 305 connections;
#X obj 171 109 inlet;
#X obj 398 320 inlet;
#X obj 398 533 outlet;
#X obj 497 320 inlet;
#X obj 171 432 spigot;
#X obj 210 336 bng 15 250 50 0 empty empty empty 17 7 0 10 #fcfcfc #000000 #000000;
#X obj 210 384 sel 0;
#X msg 241 409 0;
#X msg 210 407 1;
#X obj 210 359 counter 0 10;
#X text 113 364 filter;
#X connect 0 0 2 0;
#X connect 1 0 13 0;
#X connect 1 0 12 0;
#X connect 2 0 10 0;
#X connect 3 0 1 0;
#X connect 4 0 1 0;
#X connect 5 0 1 0;
#X connect 6 0 3 0;
#X connect 6 1 4 0;
#X connect 6 2 5 0;
#X connect 8 0 6 0;
#X connect 9 0 2 0;
#X connect 11 0 0 0;
#X connect 12 0 2 0;
#X connect 13 0 17 0;
#X connect 14 0 16 0;
#X connect 14 1 15 0;
#X connect 15 0 12 1;
#X connect 16 0 12 1;
#X connect 17 0 14 0;
#X restore 612 554 pd osc_send;
#X obj 612 582 tgl 15 0 empty empty empty 17 7 0 10 #fcfcfc #000000 #000000 0 1;
#X obj 686 531 bng 15 250 50 0 empty empty empty 17 7 0 10 #fcfcfc #000000 #000000;
#N canvas 0 25 1440 847 tuio_route_example 0;
#X obj 148 194 route /tuio/3Dcur set;
#X obj 148 233 unpack f f f f f f f f, f 62;
#X floatatom 148 257 5 0 0 0 - - - 0;
#X floatatom 209 257 5 0 0 0 - - - 0;
#X floatatom 271 257 5 0 0 0 - - - 0;
#X floatatom 332 257 5 0 0 0 - - - 0;
#X floatatom 394 257 5 0 0 0 - - - 0;
#X floatatom 455 257 5 0 0 0 - - - 0;
#X floatatom 517 257 5 0 0 0 - - - 0;
#X floatatom 579 257 5 0 0 0 - - - 0;
#X obj 148 125 inlet;
#X text 146 101 unpacked OSC incoming \;;
#X text 155 152 iannix 101-110 \;;
#X text 99 234 bsp.: \;;
#X text 589 232 s x y z X Y Z m \;;
#X text 156 171 hands [1 \, 2] ++ pointables [0..4] \;;
#X text 274 285 x;
#X text 340 284 y;
#X text 401 284 z;
#X connect 0 0 1 0;
#X connect 1 0 2 0;
#X connect 1 1 3 0;
#X connect 1 2 4 0;
#X connect 1 3 5 0;
#X connect 1 4 6 0;
#X connect 1 5 7 0;
#X connect 1 6 8 0;
#X connect 1 7 9 0;
#X connect 10 0 0 0;
#X restore 292 102 pd tuio_route_example;
#X text 813 495 localhost \;;
#X text 706 529 disconnect \;;
#X text 535 581 connected \;;
#X text 17 79 incoming leap data \;;
#X text 93 399 sounds: \;;
#X text 154 561 regarding sound patches \; n outlet(s): sound \; last outlet: list[a \, e \, d \, channel] \;;
#N canvas 0 25 1440 847 room_size 0;
#X obj 276 119 s global_scale;
#X text 29 59 cart2spher room radius in metres: \;;
#X obj 290 90 loadmess 3;
#X msg 276 59 3;
#X connect 2 0 0 0;
#X connect 3 0 0 0;
#X restore 635 81 pd room_size;
#X text 634 59 adjust according to square;
#X obj 159 534 dac~ 1 2 3 4 5 6 7 8 9;
#X obj 159 220 hradio 15 1 0 5 empty empty empty 0 -8 0 10 #fcfcfc #000000 #000000 0;
#X text 18 289 0 off \; 1 helicopter start \; 2 helicopter land and fade out \, drone fade in \; 3 drone fade out \, harmonies fade in \; 4 harmonices fade out \;, f 37;
#X text 17 28 3D-Audio Performance Frame \; Sven Miesner 2022 \;;
#X obj 636 36 declare -lib zexy;
#X obj 636 12 declare -lib cyclone;
#X obj 159 102 mrpeach/unpackOSC;
#X obj 159 160 route set;
#X obj 290 160 route set;
#X obj 649 468 loadbang;
#X obj 159 136 mrpeach/routeOSC /tuio/_sP /tuio/3Dcur;
#N canvas 675 243 450 300 print 0;
#X obj 35 167 print;
#X obj 35 142 spigot;
#X obj 74 119 tgl 15 0 empty empty empty 17 7 0 10 #fcfcfc #000000 #000000 0 1;
#X obj 40 85 inlet;
#X obj 82 85 inlet;
#X connect 1 0 0 0;
#X connect 2 0 1 1;
#X connect 3 0 1 0;
#X connect 4 0 2 0;
#X restore 449 135 pd print;
#X obj 502 114 tgl 15 0 empty empty empty 17 7 0 10 #fcfcfc #000000 #000000 0 1;
#X text 21 135 incoming gestures/hand movement \;, f 18;
#X obj 159 78 mrpeach/udpreceive 9001;
#X msg 649 495 connect 127.0.0.1 9000;
#X obj 254 254 cyclone/gate 3, f 22;
#X obj 160 398 abstractions/HELICOPTER/heli1;
#X connect 0 0 15 1;
#X connect 0 1 15 2;
#X connect 0 2 3 0;
#X connect 1 0 16 0;
#X connect 2 0 15 3;
#X connect 2 1 15 4;
#X connect 2 2 15 5;
#X connect 2 3 15 6;
#X connect 2 4 15 7;
#X connect 2 5 15 8;
#X connect 2 6 3 0;
#X connect 3 0 4 0;
#X connect 5 0 3 2;
#X connect 16 0 0 0;
#X connect 16 0 31 0;
#X connect 16 0 2 0;
#X connect 16 0 32 0;
#X connect 21 0 25 0;
#X connect 21 0 26 0;
#X connect 22 0 1 0;
#X connect 23 0 31 1;
#X connect 24 0 30 0;
#X connect 25 0 22 0;
#X connect 25 1 23 0;
#X connect 27 0 26 1;
#X connect 29 0 21 0;
#X connect 30 0 3 1;
#X connect 31 0 32 1;
#X connect 31 1 0 1;
#X connect 31 2 2 1;
#X connect 32 0 15 0;
#X connect 32 1 3 0;
